<svg xmlns="http://www.w3.org/2000/svg" version="1.1" xmlns:xlink="http://www.w3.org/1999/xlink" xmlns:svgjs="http://svgjs.dev/svgjs" width="1000" height="113" viewBox="0 0 1000 113"><g transform="matrix(1,0,0,1,-0.6060606029473092,0.5582958041651267)"><svg viewBox="0 0 396 45" data-background-color="#ffffff" preserveAspectRatio="xMidYMid meet" height="113" width="1000" xmlns="http://www.w3.org/2000/svg" xmlns:xlink="http://www.w3.org/1999/xlink"><g id="tight-bounds" transform="matrix(1,0,0,1,0.24000000123285758,-0.22232876750521768)"><svg viewBox="0 0 395.5199999999999 45.44465721945614" height="45.44465721945614" width="395.5199999999999"><g><svg viewBox="0 0 395.5199999999999 45.44465721945614" height="45.44465721945614" width="395.5199999999999"><g><svg viewBox="0 0 395.5199999999999 45.44465721945614" height="45.44465721945614" width="395.5199999999999"><g><svg viewBox="0 0 395.5199999999999 45.44465721945614" height="45.44465721945614" width="395.5199999999999"><g><svg viewBox="0 0 395.5199999999999 45.44465721945614" height="45.44465721945614" width="395.5199999999999"><g transform="matrix(1,0,0,1,0,0)"><svg width="395.5199999999999" viewBox="0.8100000023841858 -42.189998626708984 382.44000244140625 43.94999694824219" height="45.44465721945614" data-palette-color="#89939e"><path d="M27.15-11.87L19.73-11.87 20.43-13.62 26.44-13.62 27.15-11.87ZM28.56-8.35L18.36-8.35 19.04-10.11 27.81-10.11 28.56-8.35ZM29.93-4.83L16.99-4.83 17.68-6.59 29.2-6.59 29.93-4.83ZM17.75-38.06L2.71 0 0.81 0 16.8-40.43 18.7-40.43 34.67 0 32.79 0 17.75-38.06ZM4.59 0L17.97-33.89 18.97-31.64 6.47 0 4.59 0ZM8.37 0L19.92-29.25 20.85-26.83 10.28 0 8.37 0ZM12.16 0L21.78-24.41 22.71-21.95 14.04 0 12.16 0ZM30.03-40.43L46.02 0 44.12 0 28.15-40.43 30.03-40.43ZM24.37-40.43L26.25-40.43 42.24 0 40.36 0 24.37-40.43ZM20.58-40.43L22.46-40.43 38.45 0 36.55 0 20.58-40.43ZM77.56-17.77L77.56-17.77 77.56-40.43 79.32-40.43 79.32-17.77Q79.32-14.06 76.39-11.43 73.46-8.79 69.36-8.79 65.26-8.79 62.33-11.43 59.4-14.06 59.4-17.77L59.4-17.77 59.4-40.43 61.15-40.43 61.15-17.77Q61.15-14.79 63.56-12.67 65.96-10.55 69.36-10.55 72.75-10.55 75.16-12.67 77.56-14.79 77.56-17.77ZM81.08-17.77L81.08-17.77 81.08-40.43 82.83-40.43 82.83-17.77Q82.83-15.23 81.76-12.93 80.69-10.62 78.88-8.94 77.07-7.25 74.58-6.26 72.09-5.27 69.36-5.27 66.62-5.27 64.13-6.26 61.64-7.25 59.84-8.94 58.03-10.62 56.96-12.93 55.88-15.23 55.88-17.77L55.88-17.77 55.88-40.43 57.64-40.43 57.64-17.77Q57.64-14.87 59.21-12.39 60.79-9.91 63.49-8.47 66.18-7.03 69.36-7.03 72.53-7.03 75.23-8.47 77.93-9.91 79.5-12.39 81.08-14.87 81.08-17.77ZM84.59-17.77L84.59-17.77 84.59-40.43 86.35-40.43 86.35-17.77Q86.35-14.53 85-11.56 83.64-8.59 81.37-6.45 79.1-4.3 75.95-3.03 72.8-1.76 69.36-1.76 65.92-1.76 62.77-3.03 59.62-4.3 57.35-6.45 55.08-8.59 53.72-11.56 52.37-14.53 52.37-17.77L52.37-17.77 52.37-40.43 54.12-40.43 54.12-17.77Q54.12-13.92 56.17-10.63 58.23-7.35 61.73-5.43 65.23-3.52 69.36-3.52 73.48-3.52 76.99-5.43 80.49-7.35 82.54-10.63 84.59-13.92 84.59-17.77ZM88.11-17.77L88.11-17.77 88.11-40.43 89.87-40.43 89.87-17.77Q89.87-12.5 87.11-8 84.35-3.49 79.62-0.87 74.9 1.76 69.36 1.76 63.82 1.76 59.09-0.87 54.37-3.49 51.61-8 48.85-12.5 48.85-17.77L48.85-17.77 48.85-40.43 50.61-40.43 50.61-17.77Q50.61-14.18 52.1-10.89 53.59-7.59 56.1-5.21 58.62-2.83 62.09-1.42 65.57 0 69.36 0 73.14 0 76.62-1.42 80.1-2.83 82.61-5.21 85.13-7.59 86.62-10.89 88.11-14.18 88.11-17.77ZM119.94-38.67L93.57-38.67 93.57-40.43 119.94-40.43 119.94-38.67ZM119.94-35.16L93.57-35.16 93.57-36.91 119.94-36.91 119.94-35.16ZM100.61-31.64L93.57-31.64 93.57-33.4 119.94-33.4 119.94-31.64 112.91-31.64 112.91 0 111.15 0 111.15-31.64 109.39-31.64 109.39 0 107.64 0 107.64-31.64 105.88-31.64 105.88 0 104.12 0 104.12-31.64 102.36-31.64 102.36 0 100.61 0 100.61-31.64ZM138.15-27.05Q135.32-24.22 135.32-20.21 135.32-16.21 138.15-13.38 140.98-10.55 144.99-10.55 148.99-10.55 151.82-13.38 154.66-16.21 154.66-20.21 154.66-24.22 151.82-27.05 148.99-29.88 144.99-29.88 140.98-29.88 138.15-27.05ZM134.47-15.78Q133.56-17.9 133.56-20.21 133.56-22.53 134.47-24.65 135.37-26.76 136.91-28.3 138.44-29.83 140.56-30.74 142.67-31.64 144.99-31.64 147.31-31.64 149.42-30.74 151.53-29.83 153.07-28.3 154.61-26.76 155.51-24.65 156.41-22.53 156.41-20.21 156.41-17.9 155.51-15.78 154.61-13.67 153.07-12.13 151.53-10.6 149.42-9.69 147.31-8.79 144.99-8.79 142.67-8.79 140.56-9.69 138.44-10.6 136.91-12.13 135.37-13.67 134.47-15.78ZM133.57-26.83Q131.8-23.8 131.8-20.21 131.8-16.63 133.57-13.6 135.34-10.57 138.37-8.8 141.4-7.03 144.99-7.03 148.58-7.03 151.6-8.8 154.63-10.57 156.4-13.6 158.17-16.63 158.17-20.21 158.17-23.8 156.4-26.83 154.63-29.86 151.6-31.63 148.58-33.4 144.99-33.4 141.4-33.4 138.37-31.63 135.34-29.86 133.57-26.83ZM132.05-12.72Q130.05-16.16 130.05-20.21 130.05-24.27 132.05-27.71 134.05-31.15 137.49-33.15 140.93-35.16 144.99-35.16 149.04-35.16 152.48-33.15 155.93-31.15 157.93-27.71 159.93-24.27 159.93-20.21 159.93-16.16 157.93-12.72 155.93-9.28 152.48-7.28 149.04-5.27 144.99-5.27 140.93-5.27 137.49-7.28 134.05-9.28 132.05-12.72ZM129.61-26.71Q128.29-23.61 128.29-20.21 128.29-16.82 129.61-13.72 130.93-10.62 133.16-8.39 135.39-6.15 138.49-4.83 141.59-3.52 144.99-3.52 148.38-3.52 151.48-4.83 154.58-6.15 156.82-8.39 159.05-10.62 160.37-13.72 161.69-16.82 161.69-20.21 161.69-23.61 160.37-26.71 159.05-29.81 156.82-32.04 154.58-34.28 151.48-35.6 148.38-36.91 144.99-36.91 141.59-36.91 138.49-35.6 135.39-34.28 133.16-32.04 130.93-29.81 129.61-26.71ZM129.01-10.96Q126.53-15.21 126.53-20.21 126.53-25.22 129.01-29.47 131.49-33.72 135.73-36.19 139.98-38.67 144.99-38.67 149.99-38.67 154.24-36.19 158.49-33.72 160.97-29.47 163.44-25.22 163.44-20.21 163.44-15.21 160.97-10.96 158.49-6.71 154.24-4.24 149.99-1.76 144.99-1.76 139.98-1.76 135.73-4.24 131.49-6.71 129.01-10.96ZM126.37-28.06Q124.77-24.32 124.77-20.21 124.77-16.11 126.37-12.37 127.97-8.62 130.68-5.91 133.39-3.2 137.14-1.6 140.89 0 144.99 0 149.09 0 152.84-1.6 156.58-3.2 159.29-5.91 162-8.62 163.6-12.37 165.2-16.11 165.2-20.21 165.2-24.32 163.6-28.06 162-31.81 159.29-34.52 156.58-37.23 152.84-38.83 149.09-40.43 144.99-40.43 140.89-40.43 137.14-38.83 133.39-37.23 130.68-34.52 127.97-31.81 126.37-28.06ZM124.76-11.68Q123.01-15.75 123.01-20.21 123.01-24.68 124.76-28.75 126.51-32.81 129.45-35.75 132.39-38.7 136.45-40.44 140.52-42.19 144.99-42.19 149.46-42.19 153.52-40.44 157.59-38.7 160.53-35.75 163.47-32.81 165.21-28.75 166.96-24.68 166.96-20.21 166.96-15.75 165.21-11.68 163.47-7.62 160.53-4.68 157.59-1.73 153.52 0.01 149.46 1.76 144.99 1.76 140.52 1.76 136.45 0.01 132.39-1.73 129.45-4.68 126.51-7.62 124.76-11.68ZM192.93-11.87L185.51-11.87 186.22-13.62 192.23-13.62 192.93-11.87ZM194.35-8.35L184.15-8.35 184.83-10.11 193.59-10.11 194.35-8.35ZM195.72-4.83L182.78-4.83 183.46-6.59 194.99-6.59 195.72-4.83ZM183.53-38.06L168.5 0 166.59 0 182.58-40.43 184.49-40.43 200.45 0 198.57 0 183.53-38.06ZM170.38 0L183.75-33.89 184.76-31.64 172.26 0 170.38 0ZM174.16 0L185.71-29.25 186.64-26.83 176.06 0 174.16 0ZM177.94 0L187.56-24.41 188.49-21.95 179.82 0 177.94 0ZM195.82-40.43L211.81 0 209.9 0 193.94-40.43 195.82-40.43ZM190.15-40.43L192.03-40.43 208.02 0 206.14 0 190.15-40.43ZM186.37-40.43L188.25-40.43 204.24 0 202.33 0 186.37-40.43ZM231.21-24.61L231.21-24.61 228.26-24.61Q226.38-24.61 225.55-25.57 224.72-26.54 224.72-28.13L224.72-28.13Q224.72-31.64 229.97-31.64L229.97-31.64Q234.9-31.64 237.39-30.18L237.39-30.18 235.97-29.1Q234.26-29.88 229.97-29.88L229.97-29.88Q227.87-29.88 227.15-29.42 226.43-28.96 226.43-28.13 226.43-27.29 226.82-26.83 227.21-26.37 228.26-26.37L228.26-26.37 231.29-26.37Q234.58-26.37 237.23-25.24 239.88-24.12 241.59-22.18 243.3-20.24 244.2-17.71 245.1-15.19 245.1-12.3L245.1-12.3Q245.1-9.96 244.45-7.86 243.79-5.76 242.46-4 241.13-2.25 239.26-0.96 237.39 0.32 234.81 1.04 232.24 1.76 229.24 1.76L229.24 1.76Q224.52 1.76 220.41 0.33 216.3-1.1 213.56-3.66L213.56-3.66 214.98-4.71Q217.47-2.47 221.22-1.23 224.96 0 229.24 0L229.24 0Q232.58 0 235.28-0.96 237.98-1.93 239.72-3.61 241.47-5.3 242.41-7.52 243.35-9.74 243.35-12.3L243.35-12.3Q243.35-15.7 241.98-18.44 240.61-21.19 237.82-22.9 235.02-24.61 231.21-24.61ZM228.26-22.85L228.26-22.85 231.04-22.85Q236-22.85 238.79-19.82 241.59-16.8 241.59-12.3L241.59-12.3Q241.59-7.74 238.34-4.75 235.09-1.76 229.24-1.76L229.24-1.76Q225.33-1.76 221.94-2.83 218.54-3.91 216.3-5.86L216.3-5.86 217.66-6.96Q219.67-5.32 222.7-4.42 225.74-3.52 229.24-3.52L229.24-3.52Q234.39-3.52 237.11-5.98 239.83-8.45 239.83-12.3L239.83-12.3Q239.83-16.11 237.55-18.6 235.27-21.09 231.02-21.09L231.02-21.09 228.26-21.09Q224.69-21.09 222.91-23.05 221.13-25 221.13-28.13 221.13-31.25 223.34-33.2 225.55-35.16 229.97-35.16L229.97-35.16Q233.07-35.16 235.73-34.44 238.39-33.72 240.12-32.37L240.12-32.37 238.73-31.3Q235.68-33.4 229.97-33.4L229.97-33.4Q226.28-33.4 224.58-31.95 222.89-30.49 222.89-28.13L222.89-28.13Q222.89-25.73 224.15-24.29 225.4-22.85 228.26-22.85ZM228.26-19.34L228.26-19.34 230.94-19.34Q234.51-19.34 236.29-17.36 238.07-15.38 238.07-12.3L238.07-12.3Q238.07-9.18 235.86-7.23 233.65-5.27 229.24-5.27L229.24-5.27Q226.13-5.27 223.46-5.99 220.79-6.71 219.05-8.06L219.05-8.06 220.45-9.13Q223.5-7.03 229.24-7.03L229.24-7.03Q232.92-7.03 234.62-8.48 236.32-9.94 236.32-12.3 236.32-14.67 235.05-16.13 233.78-17.58 230.92-17.58L230.92-17.58 228.26-17.58Q223.25-17.58 220.43-20.57 217.61-23.56 217.61-28.13 217.61-32.69 220.86-35.68 224.11-38.67 229.97-38.67L229.97-38.67Q233.87-38.67 237.26-37.6 240.64-36.52 242.88-34.57L242.88-34.57 241.52-33.47Q239.51-35.11 236.49-36.01 233.46-36.91 229.97-36.91L229.97-36.91Q224.82-36.91 222.09-34.45 219.37-31.98 219.37-28.13L219.37-28.13Q219.37-24.29 221.67-21.81 223.96-19.34 228.26-19.34ZM228.26-15.82L228.26-15.82 230.94-15.82Q232.82-15.82 233.65-14.84 234.48-13.87 234.48-12.3L234.48-12.3Q234.48-8.79 229.24-8.79L229.24-8.79Q224.28-8.79 221.79-10.25L221.79-10.25 223.21-11.33Q224.91-10.55 229.24-10.55L229.24-10.55Q231.34-10.55 232.06-11.01 232.78-11.47 232.78-12.3L232.78-12.3Q232.78-13.11 232.37-13.59 231.97-14.06 230.9-14.06L230.9-14.06 228.26-14.06Q224.89-14.06 222.17-15.16 219.45-16.26 217.7-18.19 215.95-20.12 215.03-22.66 214.1-25.2 214.1-28.13L214.1-28.13Q214.1-30.47 214.76-32.57 215.42-34.67 216.75-36.43 218.08-38.18 219.95-39.47 221.81-40.75 224.39-41.47 226.97-42.19 229.97-42.19L229.97-42.19Q234.68-42.19 238.78-40.76 242.88-39.33 245.62-36.77L245.62-36.77 244.2-35.72Q241.71-37.96 237.98-39.2 234.24-40.43 229.97-40.43L229.97-40.43Q226.62-40.43 223.93-39.47 221.23-38.5 219.48-36.82 217.74-35.13 216.8-32.91 215.86-30.69 215.86-28.13L215.86-28.13Q215.86-24.68 217.25-21.92 218.64-19.17 221.5-17.49 224.35-15.82 228.26-15.82ZM265.32-24.61L265.32-24.61 262.36-24.61Q260.48-24.61 259.65-25.57 258.82-26.54 258.82-28.13L258.82-28.13Q258.82-31.64 264.07-31.64L264.07-31.64Q269-31.64 271.49-30.18L271.49-30.18 270.08-29.1Q268.37-29.88 264.07-29.88L264.07-29.88Q261.97-29.88 261.25-29.42 260.53-28.96 260.53-28.13 260.53-27.29 260.92-26.83 261.31-26.37 262.36-26.37L262.36-26.37 265.39-26.37Q268.69-26.37 271.34-25.24 273.98-24.12 275.69-22.18 277.4-20.24 278.31-17.71 279.21-15.19 279.21-12.3L279.21-12.3Q279.21-9.96 278.55-7.86 277.89-5.76 276.56-4 275.23-2.25 273.36-0.96 271.49 0.32 268.92 1.04 266.34 1.76 263.34 1.76L263.34 1.76Q258.63 1.76 254.51 0.33 250.4-1.1 247.67-3.66L247.67-3.66 249.08-4.71Q251.57-2.47 255.32-1.23 259.07 0 263.34 0L263.34 0Q266.68 0 269.38-0.96 272.08-1.93 273.83-3.61 275.57-5.3 276.51-7.52 277.45-9.74 277.45-12.3L277.45-12.3Q277.45-15.7 276.08-18.44 274.72-21.19 271.92-22.9 269.13-24.61 265.32-24.61ZM262.36-22.85L262.36-22.85 265.15-22.85Q270.1-22.85 272.9-19.82 275.69-16.8 275.69-12.3L275.69-12.3Q275.69-7.74 272.45-4.75 269.2-1.76 263.34-1.76L263.34-1.76Q259.43-1.76 256.04-2.83 252.65-3.91 250.4-5.86L250.4-5.86 251.77-6.96Q253.77-5.32 256.81-4.42 259.85-3.52 263.34-3.52L263.34-3.52Q268.49-3.52 271.21-5.98 273.94-8.45 273.94-12.3L273.94-12.3Q273.94-16.11 271.65-18.6 269.37-21.09 265.12-21.09L265.12-21.09 262.36-21.09Q258.8-21.09 257.02-23.05 255.23-25 255.23-28.13 255.23-31.25 257.44-33.2 259.65-35.16 264.07-35.16L264.07-35.16Q267.17-35.16 269.83-34.44 272.49-33.72 274.23-32.37L274.23-32.37 272.84-31.3Q269.78-33.4 264.07-33.4L264.07-33.4Q260.39-33.4 258.69-31.95 256.99-30.49 256.99-28.13L256.99-28.13Q256.99-25.73 258.25-24.29 259.51-22.85 262.36-22.85ZM262.36-19.34L262.36-19.34 265.05-19.34Q268.61-19.34 270.4-17.36 272.18-15.38 272.18-12.3L272.18-12.3Q272.18-9.18 269.97-7.23 267.76-5.27 263.34-5.27L263.34-5.27Q260.24-5.27 257.57-5.99 254.89-6.71 253.16-8.06L253.16-8.06 254.55-9.13Q257.6-7.03 263.34-7.03L263.34-7.03Q267.03-7.03 268.72-8.48 270.42-9.94 270.42-12.3 270.42-14.67 269.15-16.13 267.88-17.58 265.02-17.58L265.02-17.58 262.36-17.58Q257.36-17.58 254.54-20.57 251.72-23.56 251.72-28.13 251.72-32.69 254.97-35.68 258.21-38.67 264.07-38.67L264.07-38.67Q267.98-38.67 271.36-37.6 274.74-36.52 276.99-34.57L276.99-34.57 275.62-33.47Q273.62-35.11 270.59-36.01 267.56-36.91 264.07-36.91L264.07-36.91Q258.92-36.91 256.2-34.45 253.48-31.98 253.48-28.13L253.48-28.13Q253.48-24.29 255.77-21.81 258.07-19.34 262.36-19.34ZM262.36-15.82L262.36-15.82 265.05-15.82Q266.93-15.82 267.76-14.84 268.59-13.87 268.59-12.3L268.59-12.3Q268.59-8.79 263.34-8.79L263.34-8.79Q258.38-8.79 255.89-10.25L255.89-10.25 257.31-11.33Q259.02-10.55 263.34-10.55L263.34-10.55Q265.44-10.55 266.16-11.01 266.88-11.47 266.88-12.3L266.88-12.3Q266.88-13.11 266.48-13.59 266.07-14.06 265-14.06L265-14.06 262.36-14.06Q258.99-14.06 256.27-15.16 253.55-16.26 251.8-18.19 250.06-20.12 249.13-22.66 248.2-25.2 248.2-28.13L248.2-28.13Q248.2-30.47 248.86-32.57 249.52-34.67 250.85-36.43 252.18-38.18 254.05-39.47 255.92-40.75 258.49-41.47 261.07-42.19 264.07-42.19L264.07-42.19Q268.78-42.19 272.89-40.76 276.99-39.33 279.72-36.77L279.72-36.77 278.31-35.72Q275.82-37.96 272.08-39.2 268.34-40.43 264.07-40.43L264.07-40.43Q260.73-40.43 258.03-39.47 255.33-38.5 253.59-36.82 251.84-35.13 250.9-32.91 249.96-30.69 249.96-28.13L249.96-28.13Q249.96-24.68 251.35-21.92 252.74-19.17 255.6-17.49 258.46-15.82 262.36-15.82ZM291.88-40.43L291.88 0 290.12 0 290.12-40.43 291.88-40.43ZM288.36-40.43L288.36 0 286.6 0 286.6-40.43 288.36-40.43ZM284.85-40.43L284.85 0 283.09 0 283.09-40.43 284.85-40.43ZM295.39-15.82L295.39-8.79 314.09-8.79 314.09-7.03 295.39-7.03 295.39-5.27 314.09-5.27 314.09-3.52 295.39-3.52 295.39-1.76 314.09-1.76 314.09 0 293.63 0 293.63-40.43 314.09-40.43 314.09-38.67 295.39-38.67 295.39-36.91 314.09-36.91 314.09-35.16 295.39-35.16 295.39-33.4 314.09-33.4 314.09-31.64 295.39-31.64 295.39-24.61 304.99-24.61 304.99-22.85 295.39-22.85 295.39-21.09 304.99-21.09 304.99-19.34 295.39-19.34 295.39-17.58 304.99-17.58 304.99-15.82 295.39-15.82ZM334.75-24.61L334.75-24.61 331.79-24.61Q329.91-24.61 329.08-25.57 328.25-26.54 328.25-28.13L328.25-28.13Q328.25-31.64 333.5-31.64L333.5-31.64Q338.43-31.64 340.92-30.18L340.92-30.18 339.51-29.1Q337.8-29.88 333.5-29.88L333.5-29.88Q331.4-29.88 330.68-29.42 329.96-28.96 329.96-28.13 329.96-27.29 330.35-26.83 330.74-26.37 331.79-26.37L331.79-26.37 334.82-26.37Q338.11-26.37 340.76-25.24 343.41-24.12 345.12-22.18 346.83-20.24 347.73-17.71 348.64-15.19 348.64-12.3L348.64-12.3Q348.64-9.96 347.98-7.86 347.32-5.76 345.99-4 344.66-2.25 342.79-0.96 340.92 0.32 338.35 1.04 335.77 1.76 332.77 1.76L332.77 1.76Q328.06 1.76 323.94 0.33 319.83-1.1 317.09-3.66L317.09-3.66 318.51-4.71Q321-2.47 324.75-1.23 328.5 0 332.77 0L332.77 0Q336.11 0 338.81-0.96 341.51-1.93 343.25-3.61 345-5.3 345.94-7.52 346.88-9.74 346.88-12.3L346.88-12.3Q346.88-15.7 345.51-18.44 344.15-21.19 341.35-22.9 338.55-24.61 334.75-24.61ZM331.79-22.85L331.79-22.85 334.57-22.85Q339.53-22.85 342.33-19.82 345.12-16.8 345.12-12.3L345.12-12.3Q345.12-7.74 341.87-4.75 338.63-1.76 332.77-1.76L332.77-1.76Q328.86-1.76 325.47-2.83 322.07-3.91 319.83-5.86L319.83-5.86 321.2-6.96Q323.2-5.32 326.24-4.42 329.28-3.52 332.77-3.52L332.77-3.52Q337.92-3.52 340.64-5.98 343.36-8.45 343.36-12.3L343.36-12.3Q343.36-16.11 341.08-18.6 338.8-21.09 334.55-21.09L334.55-21.09 331.79-21.09Q328.23-21.09 326.44-23.05 324.66-25 324.66-28.13 324.66-31.25 326.87-33.2 329.08-35.16 333.5-35.16L333.5-35.16Q336.6-35.16 339.26-34.44 341.92-33.72 343.66-32.37L343.66-32.37 342.27-31.3Q339.21-33.4 333.5-33.4L333.5-33.4Q329.81-33.4 328.12-31.95 326.42-30.49 326.42-28.13L326.42-28.13Q326.42-25.73 327.68-24.29 328.94-22.85 331.79-22.85ZM331.79-19.34L331.79-19.34 334.48-19.34Q338.04-19.34 339.82-17.36 341.61-15.38 341.61-12.3L341.61-12.3Q341.61-9.18 339.4-7.23 337.19-5.27 332.77-5.27L332.77-5.27Q329.67-5.27 326.99-5.99 324.32-6.71 322.59-8.06L322.59-8.06 323.98-9.13Q327.03-7.03 332.77-7.03L332.77-7.03Q336.45-7.03 338.15-8.48 339.85-9.94 339.85-12.3 339.85-14.67 338.58-16.13 337.31-17.58 334.45-17.58L334.45-17.58 331.79-17.58Q326.79-17.58 323.97-20.57 321.15-23.56 321.15-28.13 321.15-32.69 324.39-35.68 327.64-38.67 333.5-38.67L333.5-38.67Q337.41-38.67 340.79-37.6 344.17-36.52 346.42-34.57L346.42-34.57 345.05-33.47Q343.05-35.11 340.02-36.01 336.99-36.91 333.5-36.91L333.5-36.91Q328.35-36.91 325.63-34.45 322.9-31.98 322.9-28.13L322.9-28.13Q322.9-24.29 325.2-21.81 327.49-19.34 331.79-19.34ZM331.79-15.82L331.79-15.82 334.48-15.82Q336.36-15.82 337.19-14.84 338.02-13.87 338.02-12.3L338.02-12.3Q338.02-8.79 332.77-8.79L332.77-8.79Q327.81-8.79 325.32-10.25L325.32-10.25 326.74-11.33Q328.45-10.55 332.77-10.55L332.77-10.55Q334.87-10.55 335.59-11.01 336.31-11.47 336.31-12.3L336.31-12.3Q336.31-13.11 335.91-13.59 335.5-14.06 334.43-14.06L334.43-14.06 331.79-14.06Q328.42-14.06 325.7-15.16 322.98-16.26 321.23-18.19 319.49-20.12 318.56-22.66 317.63-25.2 317.63-28.13L317.63-28.13Q317.63-30.47 318.29-32.57 318.95-34.67 320.28-36.43 321.61-38.18 323.48-39.47 325.35-40.75 327.92-41.47 330.5-42.19 333.5-42.19L333.5-42.19Q338.21-42.19 342.31-40.76 346.42-39.33 349.15-36.77L349.15-36.77 347.73-35.72Q345.24-37.96 341.51-39.2 337.77-40.43 333.5-40.43L333.5-40.43Q330.16-40.43 327.46-39.47 324.76-38.5 323.01-36.82 321.27-35.13 320.33-32.91 319.39-30.69 319.39-28.13L319.39-28.13Q319.39-24.68 320.78-21.92 322.17-19.17 325.03-17.49 327.89-15.82 331.79-15.82ZM368.85-24.61L368.85-24.61 365.9-24.61Q364.02-24.61 363.19-25.57 362.36-26.54 362.36-28.13L362.36-28.13Q362.36-31.64 367.6-31.64L367.6-31.64Q372.54-31.64 375.03-30.18L375.03-30.18 373.61-29.1Q371.9-29.88 367.6-29.88L367.6-29.88Q365.5-29.88 364.78-29.42 364.06-28.96 364.06-28.13 364.06-27.29 364.46-26.83 364.85-26.37 365.9-26.37L365.9-26.37 368.92-26.37Q372.22-26.37 374.87-25.24 377.52-24.12 379.23-22.18 380.93-20.24 381.84-17.71 382.74-15.19 382.74-12.3L382.74-12.3Q382.74-9.96 382.08-7.86 381.42-5.76 380.09-4 378.76-2.25 376.89-0.96 375.03 0.32 372.45 1.04 369.87 1.76 366.87 1.76L366.87 1.76Q362.16 1.76 358.05 0.33 353.93-1.1 351.2-3.66L351.2-3.66 352.61-4.71Q355.1-2.47 358.85-1.23 362.6 0 366.87 0L366.87 0Q370.22 0 372.91-0.96 375.61-1.93 377.36-3.61 379.1-5.3 380.04-7.52 380.98-9.74 380.98-12.3L380.98-12.3Q380.98-15.7 379.62-18.44 378.25-21.19 375.45-22.9 372.66-24.61 368.85-24.61ZM365.9-22.85L365.9-22.85 368.68-22.85Q373.63-22.85 376.43-19.82 379.23-16.8 379.23-12.3L379.23-12.3Q379.23-7.74 375.98-4.75 372.73-1.76 366.87-1.76L366.87-1.76Q362.97-1.76 359.57-2.83 356.18-3.91 353.93-5.86L353.93-5.86 355.3-6.96Q357.3-5.32 360.34-4.42 363.38-3.52 366.87-3.52L366.87-3.52Q372.02-3.52 374.75-5.98 377.47-8.45 377.47-12.3L377.47-12.3Q377.47-16.11 375.19-18.6 372.9-21.09 368.65-21.09L368.65-21.09 365.9-21.09Q362.33-21.09 360.55-23.05 358.77-25 358.77-28.13 358.77-31.25 360.98-33.2 363.19-35.16 367.6-35.16L367.6-35.16Q370.71-35.16 373.37-34.44 376.03-33.72 377.76-32.37L377.76-32.37 376.37-31.3Q373.32-33.4 367.6-33.4L367.6-33.4Q363.92-33.4 362.22-31.95 360.52-30.49 360.52-28.13L360.52-28.13Q360.52-25.73 361.78-24.29 363.04-22.85 365.9-22.85ZM365.9-19.34L365.9-19.34 368.58-19.34Q372.15-19.34 373.93-17.36 375.71-15.38 375.71-12.3L375.71-12.3Q375.71-9.18 373.5-7.23 371.29-5.27 366.87-5.27L366.87-5.27Q363.77-5.27 361.1-5.99 358.42-6.71 356.69-8.06L356.69-8.06 358.08-9.13Q361.13-7.03 366.87-7.03L366.87-7.03Q370.56-7.03 372.26-8.48 373.95-9.94 373.95-12.3 373.95-14.67 372.68-16.13 371.41-17.58 368.56-17.58L368.56-17.58 365.9-17.58Q360.89-17.58 358.07-20.57 355.25-23.56 355.25-28.13 355.25-32.69 358.5-35.68 361.75-38.67 367.6-38.67L367.6-38.67Q371.51-38.67 374.89-37.6 378.27-36.52 380.52-34.57L380.52-34.57 379.15-33.47Q377.15-35.11 374.12-36.01 371.1-36.91 367.6-36.91L367.6-36.91Q362.45-36.91 359.73-34.45 357.01-31.98 357.01-28.13L357.01-28.13Q357.01-24.29 359.3-21.81 361.6-19.34 365.9-19.34ZM365.9-15.82L365.9-15.82 368.58-15.82Q370.46-15.82 371.29-14.84 372.12-13.87 372.12-12.3L372.12-12.3Q372.12-8.79 366.87-8.79L366.87-8.79Q361.92-8.79 359.43-10.25L359.43-10.25 360.84-11.33Q362.55-10.55 366.87-10.55L366.87-10.55Q368.97-10.55 369.69-11.01 370.41-11.47 370.41-12.3L370.41-12.3Q370.41-13.11 370.01-13.59 369.61-14.06 368.53-14.06L368.53-14.06 365.9-14.06Q362.53-14.06 359.8-15.16 357.08-16.26 355.34-18.19 353.59-20.12 352.66-22.66 351.74-25.2 351.74-28.13L351.74-28.13Q351.74-30.47 352.39-32.57 353.05-34.67 354.38-36.43 355.71-38.18 357.58-39.47 359.45-40.75 362.03-41.47 364.6-42.19 367.6-42.19L367.6-42.19Q372.32-42.19 376.42-40.76 380.52-39.33 383.25-36.77L383.25-36.77 381.84-35.72Q379.35-37.96 375.61-39.2 371.88-40.43 367.6-40.43L367.6-40.43Q364.26-40.43 361.56-39.47 358.86-38.5 357.12-36.82 355.37-35.13 354.43-32.91 353.49-30.69 353.49-28.13L353.49-28.13Q353.49-24.68 354.88-21.92 356.28-19.17 359.13-17.49 361.99-15.82 365.9-15.82Z" opacity="1" transform="matrix(1,0,0,1,0,0)" fill="#89939e" class="undefined-text-0" data-fill-palette-color="primary" id="text-0"></path></svg></g></svg></g></svg></g></svg></g><g></g></svg></g><defs></defs></svg><rect width="395.5199999999999" height="45.44465721945614" fill="none" stroke="none" visibility="hidden"></rect></g></svg></g></svg>